<svg width="280" height="280" viewBox="0 0 280 280" fill="none" xmlns="http://www.w3.org/2000/svg">
<path d="M242.748 2.8875C241.085 1.05 238.74 0 236.255 0H43.7555C41.288 0 38.9255 1.05 37.263 2.8875C35.618 4.7075 34.7955 7.1575 35.0405 9.625L61.2905 272.125C61.7455 276.605 65.508 280 70.0055 280H210.005C214.503 280 218.265 276.605 218.703 272.125L244.953 9.625C245.215 7.1575 244.41 4.7075 242.748 2.8875Z" fill="#ECEFF1"/>
<path d="M224 70.7913L198.998 262H77.063L58 70.7913C79.4674 63.8822 112.098 59.2186 138.03 80.6367C172 127 202.704 77.3549 224 70.7913Z" fill="#2196F3"/>
<path d="M224 70.7913L198.998 262H77.063L58 70.7913C79.4674 63.8822 121.067 62.5819 147 84C198.998 101 202.704 77.3549 224 70.7913Z" fill="#2196F3"/>
</svg>
